# xmcd
#
# Track frame offsets: 
#        150
#        21350
#        45985
#        69525
#        91050
#        115360
#        133660
#        153000
#        174995
#        183450
#        198275
#        227280
#        242220
#        260730
#        280840
#
# Disc length: 3933 seconds
#
# Revision: 2
# Processed by: cddbd v1.5PL3 Copyright (c) Steve Scherf et al.
# Submitted via: ExactAudioCopy v0.95a3
#
DISCID=c30f5b0f
DTITLE=Nuno Mindelis - Blues On The Outside
DYEAR=2000
DGENRE=Blues
TTITLE0=The Grass Is Greener
TTITLE1=In Trouble
TTITLE2=I Know What You Want
TTITLE3=Walk Away Baby
TTITLE4=Dirty Little Toy
TTITLE5=Spinnng Wheel
TTITLE6=It Just Can Be Love
TTITLE7=Motorhead Baby
TTITLE8=More Hugs
TTITLE9=I Don't Wanna Be Your Nightmare
TTITLE10=Never Sell Your Soul
TTITLE11=Nine To Nine Blues
TTITLE12=Blues On The Out Side
TTITLE13=No Matter Where
TTITLE14=Never Off With The Blue
EXTD=
EXTT0=
EXTT1=
EXTT2=
EXTT3=
EXTT4=
EXTT5=
EXTT6=
EXTT7=
EXTT8=
EXTT9=
EXTT10=
EXTT11=
EXTT12=
EXTT13=
EXTT14=
PLAYORDER=
